<svg id="Layer_1" data-name="Layer 1" xmlns="http://www.w3.org/2000/svg" xmlns:xlink="http://www.w3.org/1999/xlink" viewBox="0 0 1920 1080"><defs><style>.cls-1,.cls-16,.cls-17{fill:none;}.cls-2{clip-path:url(#clip-path);}.cls-3{fill:url(#linear-gradient);}.cls-4{fill:url(#linear-gradient-2);}.cls-5{fill:url(#linear-gradient-3);}.cls-6{fill:url(#linear-gradient-4);}.cls-7{fill:url(#linear-gradient-5);}.cls-8{fill:url(#linear-gradient-6);}.cls-9{fill:url(#linear-gradient-7);}.cls-10{fill:url(#linear-gradient-8);}.cls-11{fill:url(#linear-gradient-9);}.cls-12{fill:url(#linear-gradient-10);}.cls-13{fill:url(#linear-gradient-11);}.cls-14{fill:url(#linear-gradient-12);}.cls-15{fill:url(#linear-gradient-13);}.cls-16,.cls-17{stroke:#fff;stroke-linecap:round;stroke-linejoin:round;stroke-width:2px;}.cls-16{opacity:0.74;}.cls-17{opacity:0.75;}</style><clipPath id="clip-path"><rect class="cls-1" y="459" width="1920" height="621"/></clipPath><linearGradient id="linear-gradient" x1="2985.03" y1="-1281.99" x2="3790.36" y2="-1281.99" gradientTransform="translate(-3118.03 2515.53)" gradientUnits="userSpaceOnUse"><stop offset="0" stop-color="#090070"/><stop offset="0.19" stop-color="#080079"/><stop offset="0.52" stop-color="#070093"/><stop offset="0.93" stop-color="#0400bc"/><stop offset="1" stop-color="#0300c4"/></linearGradient><linearGradient id="linear-gradient-2" x1="4775.98" y1="-1334.83" x2="5581.31" y2="-1334.83" xlink:href="#linear-gradient"/><linearGradient id="linear-gradient-3" x1="3981.15" y1="-1553.65" x2="4323.03" y2="-1553.65" xlink:href="#linear-gradient"/><linearGradient id="linear-gradient-4" x1="3693.69" y1="-1413.97" x2="3886.36" y2="-1413.97" gradientTransform="translate(-3118.03 2515.53)" gradientUnits="userSpaceOnUse"><stop offset="0" stop-color="#090070" stop-opacity="0.9"/><stop offset="0.01" stop-color="#090072" stop-opacity="0.9"/><stop offset="0.19" stop-color="#07008f" stop-opacity="0.94"/><stop offset="0.39" stop-color="#0500a6" stop-opacity="0.96"/><stop offset="0.58" stop-color="#0400b7" stop-opacity="0.98"/><stop offset="0.78" stop-color="#0300c1"/><stop offset="1" stop-color="#0300c4"/></linearGradient><linearGradient id="linear-gradient-5" x1="3308.36" y1="-1645.81" x2="3398.33" y2="-1645.81" gradientTransform="translate(-3118.03 2515.53)" gradientUnits="userSpaceOnUse"><stop offset="0" stop-color="#090070" stop-opacity="0.2"/><stop offset="0.11" stop-color="#080083" stop-opacity="0.38"/><stop offset="0.25" stop-color="#060097" stop-opacity="0.57"/><stop offset="0.39" stop-color="#0500a7" stop-opacity="0.72"/><stop offset="0.54" stop-color="#0400b4" stop-opacity="0.85"/><stop offset="0.68" stop-color="#0400bd" stop-opacity="0.93"/><stop offset="0.84" stop-color="#0300c2" stop-opacity="0.98"/><stop offset="1" stop-color="#0300c4"/></linearGradient><linearGradient id="linear-gradient-6" x1="4107.11" y1="-1392.14" x2="4197.08" y2="-1392.14" gradientTransform="translate(-3118.03 2515.53)" gradientUnits="userSpaceOnUse"><stop offset="0" stop-color="#090070" stop-opacity="0.8"/><stop offset="0.06" stop-color="#08007a" stop-opacity="0.82"/><stop offset="0.24" stop-color="#060095" stop-opacity="0.89"/><stop offset="0.42" stop-color="#0500aa" stop-opacity="0.94"/><stop offset="0.6" stop-color="#0400b8" stop-opacity="0.97"/><stop offset="0.79" stop-color="#0300c1" stop-opacity="0.99"/><stop offset="1" stop-color="#0300c4"/></linearGradient><linearGradient id="linear-gradient-7" x1="5314.52" y1="-121.33" x2="5265.76" y2="-108.26" gradientTransform="translate(726.76 6320.34) rotate(-90)" gradientUnits="userSpaceOnUse"><stop offset="0" stop-color="#090070" stop-opacity="0.9"/><stop offset="1" stop-color="#0300c4"/></linearGradient><linearGradient id="linear-gradient-8" x1="4226.69" y1="-1445.97" x2="4419.36" y2="-1445.97" xlink:href="#linear-gradient-4"/><linearGradient id="linear-gradient-9" x1="5067.39" y1="420.73" x2="5018.62" y2="433.79" gradientTransform="translate(777.71 6016.2) rotate(-90)" xlink:href="#linear-gradient-7"/><linearGradient id="linear-gradient-10" x1="4782.32" y1="706.48" x2="4733.56" y2="719.54" gradientTransform="translate(881.96 5835.13) rotate(-90)" xlink:href="#linear-gradient-7"/><linearGradient id="linear-gradient-11" x1="3948.67" y1="-1631.33" x2="4084.29" y2="-1631.33" xlink:href="#linear-gradient-6"/><linearGradient id="linear-gradient-12" x1="4674.15" y1="-1528.65" x2="5016.03" y2="-1528.65" xlink:href="#linear-gradient"/><linearGradient id="linear-gradient-13" x1="4729.67" y1="-1406.33" x2="4865.29" y2="-1406.33" xlink:href="#linear-gradient-6"/></defs><title>Footer2</title><g class="cls-2"><circle class="cls-3" cx="269.67" cy="1233.54" r="402.67"/><circle class="cls-4" cx="2060.61" cy="1180.7" r="402.67"/><circle class="cls-5" cx="1034.06" cy="961.88" r="170.94"/><circle class="cls-6" cx="671.99" cy="1101.56" r="96.33"/><circle class="cls-7" cx="235.31" cy="869.72" r="44.98"/><circle class="cls-8" cx="1034.06" cy="1123.39" r="44.98"/><circle class="cls-9" cx="611.97" cy="1030.2" r="25.24" transform="translate(-433.11 444) rotate(-30)"/><circle class="cls-10" cx="1204.99" cy="1069.56" r="96.33"/><circle class="cls-11" cx="1204.97" cy="973.2" r="25.24" transform="translate(-325.16 732.87) rotate(-30)"/><circle class="cls-12" cx="1594.97" cy="1077.2" r="25.24" transform="translate(-324.91 941.8) rotate(-30)"/><circle class="cls-13" cx="898.45" cy="884.2" r="67.81"/><circle class="cls-14" cx="1727.06" cy="986.88" r="170.94"/><circle class="cls-15" cx="1679.45" cy="1109.2" r="67.81"/><polygon class="cls-16" points="362.99 1114.39 386.93 1072.92 339.04 1072.92 362.99 1114.39"/><polygon class="cls-16" points="341.45 1126.53 372.46 1072.81 310.43 1072.81 341.45 1126.53"/><polygon class="cls-17" points="909.17 1049.31 885.23 1090.78 933.12 1090.78 909.17 1049.31"/><polygon class="cls-17" points="943.86 1041.44 921.76 1079.72 965.97 1079.72 943.86 1041.44"/><polygon class="cls-17" points="930.71 1037.17 899.7 1090.89 961.73 1090.89 930.71 1037.17"/><polygon class="cls-16" points="255.27 1103.79 299.32 1027.49 211.23 1027.49 255.27 1103.79"/><polygon class="cls-16" points="220.8 1105.36 255.22 1045.74 186.38 1045.74 220.8 1105.36"/></g></svg>
