<svg id="Layer_1" data-name="Layer 1" xmlns="http://www.w3.org/2000/svg" xmlns:xlink="http://www.w3.org/1999/xlink" viewBox="0 0 1920 1080"><defs><style>.cls-1{fill:url(#linear-gradient);}.cls-2{fill:url(#linear-gradient-2);}.cls-3{fill:url(#linear-gradient-3);}.cls-4{fill:url(#linear-gradient-4);}.cls-5{fill:url(#linear-gradient-5);}.cls-6{fill:url(#linear-gradient-6);}.cls-7{fill:url(#linear-gradient-7);}.cls-8{fill:url(#linear-gradient-8);}.cls-10,.cls-9{fill:none;stroke:#fff;stroke-linecap:round;stroke-linejoin:round;stroke-width:2px;}.cls-9{opacity:0.74;}.cls-10{opacity:0.75;}</style><linearGradient id="linear-gradient" x1="2316.03" y1="-1236.53" x2="4151.03" y2="-1236.53" gradientTransform="translate(-3118.03 2515.53)" gradientUnits="userSpaceOnUse"><stop offset="0" stop-color="#090070"/><stop offset="0.19" stop-color="#080079"/><stop offset="0.52" stop-color="#070093"/><stop offset="0.93" stop-color="#0400bc"/><stop offset="1" stop-color="#0300c4"/></linearGradient><linearGradient id="linear-gradient-2" x1="4588.03" y1="-1855.53" x2="5367.03" y2="-1855.53" xlink:href="#linear-gradient"/><linearGradient id="linear-gradient-3" x1="4072.03" y1="-1359.53" x2="4511.03" y2="-1359.53" gradientTransform="translate(-3118.03 2515.53)" gradientUnits="userSpaceOnUse"><stop offset="0" stop-color="#090070" stop-opacity="0.9"/><stop offset="0.01" stop-color="#090072" stop-opacity="0.9"/><stop offset="0.19" stop-color="#07008f" stop-opacity="0.94"/><stop offset="0.39" stop-color="#0500a6" stop-opacity="0.96"/><stop offset="0.58" stop-color="#0400b7" stop-opacity="0.98"/><stop offset="0.78" stop-color="#0300c1"/><stop offset="1" stop-color="#0300c4"/></linearGradient><linearGradient id="linear-gradient-4" x1="3623.03" y1="-1476.53" x2="3828.03" y2="-1476.53" gradientTransform="translate(-3118.03 2515.53)" gradientUnits="userSpaceOnUse"><stop offset="0" stop-color="#090070" stop-opacity="0.2"/><stop offset="0.11" stop-color="#080083" stop-opacity="0.38"/><stop offset="0.25" stop-color="#060097" stop-opacity="0.57"/><stop offset="0.39" stop-color="#0500a7" stop-opacity="0.72"/><stop offset="0.54" stop-color="#0400b4" stop-opacity="0.85"/><stop offset="0.68" stop-color="#0400bd" stop-opacity="0.93"/><stop offset="0.84" stop-color="#0300c2" stop-opacity="0.98"/><stop offset="1" stop-color="#0300c4"/></linearGradient><linearGradient id="linear-gradient-5" x1="3055.03" y1="-2065.53" x2="3260.03" y2="-2065.53" xlink:href="#linear-gradient-4"/><linearGradient id="linear-gradient-6" x1="4875.03" y1="-1487.53" x2="5080.03" y2="-1487.53" gradientTransform="translate(-3118.03 2515.53)" gradientUnits="userSpaceOnUse"><stop offset="0" stop-color="#090070" stop-opacity="0.8"/><stop offset="0.06" stop-color="#08007a" stop-opacity="0.82"/><stop offset="0.24" stop-color="#060095" stop-opacity="0.89"/><stop offset="0.42" stop-color="#0500aa" stop-opacity="0.94"/><stop offset="0.6" stop-color="#0400b8" stop-opacity="0.97"/><stop offset="0.79" stop-color="#0300c1" stop-opacity="0.99"/><stop offset="1" stop-color="#0300c4"/></linearGradient><linearGradient id="linear-gradient-7" x1="5156.02" y1="222.34" x2="5044.91" y2="252.12" gradientTransform="translate(774.44 6118.91) rotate(-90)" gradientUnits="userSpaceOnUse"><stop offset="0" stop-color="#090070" stop-opacity="0.9"/><stop offset="1" stop-color="#0300c4"/></linearGradient><linearGradient id="linear-gradient-8" x1="4514.03" y1="-2032.53" x2="4823.03" y2="-2032.53" xlink:href="#linear-gradient-6"/></defs><title>Asset 3</title><circle class="cls-1" cx="115.5" cy="1279" r="917.5"/><circle class="cls-2" cx="1859.5" cy="660" r="389.5"/><circle class="cls-3" cx="1173.5" cy="1156" r="219.5"/><circle class="cls-4" cx="607.5" cy="1039" r="102.5"/><circle class="cls-5" cx="39.5" cy="450" r="102.5"/><circle class="cls-6" cx="1859.5" cy="1028" r="102.5"/><circle class="cls-7" cx="1011.67" cy="1018.45" r="57.5" transform="translate(-373.69 642.28) rotate(-30)"/><circle class="cls-8" cx="1550.5" cy="483" r="154.5"/><polygon class="cls-9" points="330.42 1007.5 384.98 913 275.86 913 330.42 1007.5"/><polygon class="cls-9" points="251.37 1025.44 301.74 938.2 201 938.2 251.37 1025.44"/><polygon class="cls-9" points="281.34 1035.17 352 912.77 210.67 912.77 281.34 1035.17"/><polygon class="cls-10" points="1784.56 1016.43 1730 1110.93 1839.12 1110.93 1784.56 1016.43"/><polygon class="cls-10" points="1863.61 998.49 1813.24 1085.73 1913.98 1085.73 1863.61 998.49"/><polygon class="cls-10" points="1833.64 988.77 1762.97 1111.17 1904.31 1111.17 1833.64 988.77"/><polygon class="cls-9" points="84.98 983.34 185.35 809.5 -15.38 809.5 84.98 983.34"/><polygon class="cls-9" points="6.43 986.92 84.86 851.08 -72 851.08 6.43 986.92"/><polygon class="cls-9" points="72.52 1066.5 149.54 933.09 -4.51 933.09 72.52 1066.5"/></svg>